<svg width="19" height="15" viewBox="0 0 19 15" fill="none" xmlns="http://www.w3.org/2000/svg">
<path d="M0.933594 3.73651L8.30527 8.65097C8.61234 8.85584 8.97321 8.96517 9.34235 8.96517C9.71149 8.96517 10.0724 8.85584 10.3794 8.65097L17.7511 3.73651M2.80221 14.0139H15.8825C16.3781 14.0139 16.8534 13.817 17.2038 13.4666C17.5542 13.1161 17.7511 12.6409 17.7511 12.1453V2.80221C17.7511 2.30662 17.5542 1.83133 17.2038 1.4809C16.8534 1.13046 16.3781 0.933594 15.8825 0.933594H2.80221C2.30662 0.933594 1.83133 1.13046 1.4809 1.4809C1.13046 1.83133 0.933594 2.30662 0.933594 2.80221V12.1453C0.933594 12.6409 1.13046 13.1161 1.4809 13.4666C1.83133 13.817 2.30662 14.0139 2.80221 14.0139Z" stroke="#FFFCFC" stroke-width="1.86861" stroke-linecap="round" stroke-linejoin="round"/>
</svg>
