<svg width="19" height="19" viewBox="0 0 19 19" fill="none" xmlns="http://www.w3.org/2000/svg">
<path d="M0.933594 2.80221C0.933594 2.30662 1.13046 1.83133 1.4809 1.4809C1.83133 1.13046 2.30662 0.933594 2.80221 0.933594H5.86673C6.06274 0.933743 6.25374 0.995535 6.4127 1.11022C6.57166 1.22491 6.69052 1.38669 6.75245 1.57266L8.15205 5.7705C8.22296 5.98384 8.21457 6.21559 8.12842 6.42325C8.04227 6.6309 7.88414 6.80053 7.68302 6.90101L5.57429 7.95678C6.60794 10.2445 8.44024 12.0768 10.7279 13.1104L11.7837 11.0017C11.8842 10.8006 12.0538 10.6424 12.2615 10.5563C12.4691 10.4701 12.7009 10.4617 12.9142 10.5327L17.112 11.9323C17.2982 11.9942 17.4601 12.1132 17.5748 12.2724C17.6895 12.4315 17.7512 12.6227 17.7511 12.8189V15.8825C17.7511 16.3781 17.5542 16.8534 17.2038 17.2038C16.8534 17.5542 16.3781 17.7511 15.8825 17.7511H14.9482C7.2084 17.7511 0.933594 11.4763 0.933594 3.73651V2.80221Z" stroke="#FFFCFC" stroke-width="1.86861" stroke-linecap="round" stroke-linejoin="round"/>
</svg>
